<svg width="32" height="32" viewBox="0 0 32 32" fill="none" xmlns="http://www.w3.org/2000/svg">
<rect width="32" height="32" fill="#E5E5E5"/>
<g id="Index / 1" clip-path="url(#clip0_0_1)">
<rect width="1200" height="2419" transform="translate(-929 -23)" fill="white"/>
<g id="&#208;&#164;&#208;&#190;&#208;&#189;">
<g id="3">
<rect id="&#208;&#164;&#208;&#190;&#208;&#189;_2" x="-929" y="-23" width="1200" height="2419" fill="#9D8B84"/>
<g id="&#208;&#159;&#208;&#190;&#208;&#180;&#209;&#129;&#208;&#178;&#208;&#181;&#209;&#130;&#208;&#186;&#208;&#176;" filter="url(#filter0_f_0_1)">
<circle cx="-329" cy="335" r="358" fill="#EFE0DA" fill-opacity="0.75"/>
</g>
</g>
<g id="2">
<rect id="&#208;&#164;&#208;&#190;&#208;&#189;_3" x="-929" y="-23" width="1200" height="2419" fill="#8996A6"/>
<g id="&#208;&#159;&#208;&#190;&#208;&#180;&#209;&#129;&#208;&#178;&#208;&#181;&#209;&#130;&#208;&#186;&#208;&#176;_2" filter="url(#filter1_f_0_1)">
<circle cx="-329" cy="335" r="358" fill="#DAE4EF" fill-opacity="0.75"/>
</g>
</g>
<g id="1">
<rect id="&#208;&#164;&#208;&#190;&#208;&#189;_4" x="-929" y="-23" width="1200" height="2419" fill="#849D8F"/>
<g id="&#208;&#159;&#208;&#190;&#208;&#180;&#209;&#129;&#208;&#178;&#208;&#181;&#209;&#130;&#208;&#186;&#208;&#176;_3" filter="url(#filter2_f_0_1)">
<circle cx="-329" cy="335" r="358" fill="#D7F2E3" fill-opacity="0.75"/>
</g>
</g>
</g>
<g id="&#208;&#168;&#208;&#176;&#208;&#191;&#208;&#186;&#208;&#176;">
<g id="&#208;&#159;&#208;&#190;&#208;&#184;&#209;&#129;&#208;&#186;">
<circle id="&#208;&#159;&#208;&#190;&#208;&#180;&#208;&#187;&#208;&#190;&#208;&#182;&#208;&#186;&#208;&#176;" cx="16" cy="16" r="16" fill="white" fill-opacity="0.2"/>
<path id="&#208;&#152;&#208;&#186;&#208;&#190;&#208;&#189;&#208;&#186;&#208;&#176;" d="M24 22.6652L19.0785 17.7329C19.9827 16.4819 20.3826 14.935 20.1984 13.4013C20.0141 11.8677 19.2594 10.4601 18.0848 9.45982C16.9102 8.45954 15.4023 7.94018 13.8623 8.00549C12.3223 8.0708 10.8636 8.71597 9.77757 9.81212C8.69152 10.9083 8.05808 12.3747 8.0038 13.9185C7.94952 15.4623 8.47839 16.9698 9.48476 18.1398C10.4911 19.3098 11.9009 20.0563 13.4325 20.2301C14.9641 20.4039 16.5047 19.9922 17.7466 19.0772L22.6586 24L24 22.6652ZM14.0815 18.3767C13.2408 18.3767 12.4189 18.1268 11.7199 17.6587C11.0209 17.1906 10.476 16.5253 10.1543 15.7469C9.83258 14.9684 9.7484 14.1119 9.91241 13.2855C10.0764 12.4591 10.4813 11.7001 11.0758 11.1043C11.6702 10.5085 12.4277 10.1028 13.2522 9.93838C14.0768 9.77401 14.9315 9.85837 15.7082 10.1808C16.4849 10.5032 17.1488 11.0493 17.6159 11.7498C18.083 12.4504 18.3323 13.274 18.3323 14.1166C18.3298 15.2457 17.8811 16.3278 17.0845 17.1262C16.2879 17.9246 15.2081 18.3742 14.0815 18.3767Z" fill="white"/>
</g>
</g>
</g>
<defs>
<filter id="filter0_f_0_1" x="-937" y="-273" width="1216" height="1216" filterUnits="userSpaceOnUse" color-interpolation-filters="sRGB">
<feFlood flood-opacity="0" result="BackgroundImageFix"/>
<feBlend mode="normal" in="SourceGraphic" in2="BackgroundImageFix" result="shape"/>
<feGaussianBlur stdDeviation="125" result="effect1_foregroundBlur_0_1"/>
</filter>
<filter id="filter1_f_0_1" x="-937" y="-273" width="1216" height="1216" filterUnits="userSpaceOnUse" color-interpolation-filters="sRGB">
<feFlood flood-opacity="0" result="BackgroundImageFix"/>
<feBlend mode="normal" in="SourceGraphic" in2="BackgroundImageFix" result="shape"/>
<feGaussianBlur stdDeviation="125" result="effect1_foregroundBlur_0_1"/>
</filter>
<filter id="filter2_f_0_1" x="-937" y="-273" width="1216" height="1216" filterUnits="userSpaceOnUse" color-interpolation-filters="sRGB">
<feFlood flood-opacity="0" result="BackgroundImageFix"/>
<feBlend mode="normal" in="SourceGraphic" in2="BackgroundImageFix" result="shape"/>
<feGaussianBlur stdDeviation="125" result="effect1_foregroundBlur_0_1"/>
</filter>
<clipPath id="clip0_0_1">
<rect width="1200" height="2419" fill="white" transform="translate(-929 -23)"/>
</clipPath>
</defs>
</svg>
